<svg width="503" height="90" viewBox="0 0 503 90" fill="none" xmlns="http://www.w3.org/2000/svg">
<path d="M17.136 16.84C17.136 18.76 17.072 20.648 16.944 22.504C16.816 24.296 16.656 25.832 16.464 27.112H17.136C18.48 24.936 20.304 23.112 22.608 21.64C24.976 20.104 27.984 19.336 31.632 19.336C37.328 19.336 41.968 21.64 45.552 26.248C49.2 30.856 51.024 37.608 51.024 46.504C51.024 52.52 50.16 57.576 48.432 61.672C46.768 65.768 44.464 68.84 41.52 70.888C38.576 72.936 35.12 73.96 31.152 73.96C27.376 73.96 24.432 73.288 22.32 71.944C20.208 70.6 18.48 69.128 17.136 67.528H16.08L13.488 73H0.912V0.0399952H17.136V16.84ZM26.064 32.104C23.952 32.104 22.224 32.584 20.88 33.544C19.6 34.44 18.64 35.816 18 37.672C17.424 39.528 17.136 41.896 17.136 44.776V46.792C17.136 51.4 17.776 54.92 19.056 57.352C20.4 59.72 22.8 60.904 26.256 60.904C28.816 60.904 30.832 59.656 32.304 57.16C33.776 54.664 34.512 51.048 34.512 46.312C34.512 41.64 33.776 38.12 32.304 35.752C30.832 33.32 28.752 32.104 26.064 32.104ZM111.187 46.504C111.187 50.92 110.579 54.824 109.363 58.216C108.211 61.608 106.483 64.488 104.179 66.856C101.939 69.224 99.2188 71.016 96.0188 72.232C92.8828 73.384 89.2668 73.96 85.1708 73.96C81.4588 73.96 78.0028 73.384 74.8028 72.232C71.6668 71.016 68.9468 69.256 66.6428 66.952C64.4028 64.584 62.6428 61.704 61.3628 58.312C60.0828 54.856 59.4428 50.92 59.4428 46.504C59.4428 40.68 60.4668 35.752 62.5148 31.72C64.6268 27.688 67.6348 24.616 71.5388 22.504C75.4428 20.392 80.0828 19.336 85.4588 19.336C90.5148 19.336 94.9628 20.392 98.8028 22.504C102.643 24.616 105.651 27.688 107.827 31.72C110.067 35.752 111.187 40.68 111.187 46.504ZM75.8588 46.504C75.8588 49.768 76.1788 52.52 76.8188 54.76C77.4588 57 78.4828 58.696 79.8907 59.848C81.2988 60.936 83.1228 61.48 85.3628 61.48C87.6668 61.48 89.4908 60.936 90.8348 59.848C92.1788 58.696 93.1708 57 93.8108 54.76C94.4508 52.52 94.7708 49.768 94.7708 46.504C94.7708 43.24 94.4508 40.52 93.8108 38.344C93.1708 36.168 92.1468 34.536 90.7388 33.448C89.3948 32.36 87.5708 31.816 85.2668 31.816C82.0028 31.816 79.6028 33.064 78.0668 35.56C76.5948 37.992 75.8588 41.64 75.8588 46.504ZM138.542 30.856C138.542 32.904 138.446 35.08 138.254 37.384C138.126 39.624 137.934 41.8 137.678 43.912H137.966C138.542 43.016 139.15 42.12 139.79 41.224C140.43 40.264 141.102 39.304 141.806 38.344C142.51 37.384 143.214 36.52 143.918 35.752L157.358 20.296H175.406L155.726 42.952L176.654 73H158.126L144.59 52.84L138.542 57.544V73H122.318V0.0399952H138.542V30.856ZM206.289 19.336C211.281 19.336 215.569 20.264 219.153 22.12C222.801 23.912 225.585 26.6 227.505 30.184C229.489 33.704 230.481 38.088 230.481 43.336V50.824H197.169C197.297 54.28 198.417 57.032 200.529 59.08C202.641 61.128 205.649 62.152 209.553 62.152C212.945 62.152 216.017 61.832 218.769 61.192C221.521 60.552 224.369 59.528 227.313 58.12V70.12C224.753 71.464 222.001 72.424 219.057 73C216.113 73.64 212.497 73.96 208.209 73.96C202.897 73.96 198.161 73 194.001 71.08C189.905 69.16 186.673 66.216 184.305 62.248C182.001 58.216 180.849 53.128 180.849 46.984C180.849 40.712 181.905 35.56 184.017 31.528C186.129 27.432 189.105 24.392 192.945 22.408C196.785 20.36 201.233 19.336 206.289 19.336ZM206.577 30.568C204.081 30.568 202.001 31.368 200.337 32.968C198.737 34.504 197.777 36.968 197.457 40.36H215.601C215.601 38.504 215.249 36.84 214.545 35.368C213.905 33.896 212.913 32.744 211.569 31.912C210.225 31.016 208.561 30.568 206.577 30.568ZM272.773 19.336C278.341 19.336 282.821 20.872 286.213 23.944C289.669 26.952 291.397 31.848 291.397 38.632V73H275.269V43.144C275.269 39.496 274.661 36.744 273.445 34.888C272.229 33.032 270.309 32.104 267.685 32.104C263.781 32.104 261.125 33.576 259.717 36.52C258.309 39.4 257.605 43.56 257.605 49V73H241.381V20.296H253.669L255.877 27.112H256.645C257.797 25.384 259.173 23.944 260.773 22.792C262.373 21.64 264.197 20.776 266.245 20.2C268.293 19.624 270.469 19.336 272.773 19.336ZM354.093 46.504C354.093 50.92 353.485 54.824 352.269 58.216C351.117 61.608 349.389 64.488 347.085 66.856C344.845 69.224 342.125 71.016 338.925 72.232C335.789 73.384 332.173 73.96 328.077 73.96C324.365 73.96 320.909 73.384 317.709 72.232C314.573 71.016 311.853 69.256 309.549 66.952C307.309 64.584 305.549 61.704 304.269 58.312C302.989 54.856 302.349 50.92 302.349 46.504C302.349 40.68 303.373 35.752 305.421 31.72C307.533 27.688 310.541 24.616 314.445 22.504C318.349 20.392 322.989 19.336 328.365 19.336C333.421 19.336 337.869 20.392 341.709 22.504C345.549 24.616 348.557 27.688 350.733 31.72C352.973 35.752 354.093 40.68 354.093 46.504ZM318.765 46.504C318.765 49.768 319.085 52.52 319.725 54.76C320.365 57 321.389 58.696 322.797 59.848C324.205 60.936 326.029 61.48 328.269 61.48C330.573 61.48 332.397 60.936 333.741 59.848C335.085 58.696 336.077 57 336.717 54.76C337.357 52.52 337.677 49.768 337.677 46.504C337.677 43.24 337.357 40.52 336.717 38.344C336.077 36.168 335.053 34.536 333.645 33.448C332.301 32.36 330.477 31.816 328.173 31.816C324.909 31.816 322.509 33.064 320.973 35.56C319.501 37.992 318.765 41.64 318.765 46.504ZM389.129 61.096C390.793 61.096 392.329 60.936 393.737 60.616C395.145 60.296 396.585 59.88 398.057 59.368V71.272C396.329 72.04 394.345 72.68 392.105 73.192C389.865 73.704 387.209 73.96 384.137 73.96C380.873 73.96 377.961 73.448 375.401 72.424C372.905 71.336 370.921 69.512 369.449 66.952C368.041 64.328 367.337 60.712 367.337 56.104V32.392H360.617V25.672L368.681 20.488L373.097 9.352H383.465V20.296H397.481V32.392H383.465V55.528C383.465 57.384 383.977 58.792 385.001 59.752C386.025 60.648 387.401 61.096 389.129 61.096ZM430.82 19.336C435.812 19.336 440.1 20.264 443.684 22.12C447.332 23.912 450.116 26.6 452.036 30.184C454.02 33.704 455.012 38.088 455.012 43.336V50.824H421.7C421.828 54.28 422.948 57.032 425.06 59.08C427.172 61.128 430.18 62.152 434.084 62.152C437.476 62.152 440.548 61.832 443.3 61.192C446.052 60.552 448.9 59.528 451.844 58.12V70.12C449.284 71.464 446.532 72.424 443.588 73C440.644 73.64 437.028 73.96 432.74 73.96C427.428 73.96 422.692 73 418.532 71.08C414.436 69.16 411.204 66.216 408.836 62.248C406.532 58.216 405.38 53.128 405.38 46.984C405.38 40.712 406.436 35.56 408.548 31.528C410.66 27.432 413.636 24.392 417.476 22.408C421.316 20.36 425.764 19.336 430.82 19.336ZM431.108 30.568C428.612 30.568 426.532 31.368 424.868 32.968C423.268 34.504 422.308 36.968 421.988 40.36H440.132C440.132 38.504 439.78 36.84 439.076 35.368C438.436 33.896 437.444 32.744 436.1 31.912C434.756 31.016 433.092 30.568 431.108 30.568ZM502.584 89.32H458.808V80.488H502.584V89.32Z" fill="#1E1E1E"/>
</svg>
